<?xml version="1.0" encoding="UTF-8"?>
<svg id="Capa_1" data-name="Capa 1" xmlns="http://www.w3.org/2000/svg" viewBox="0 0 461.81 298.63">
  <defs>
    <style>
      .cls-1 {
        fill: #fff;
        stroke-width: 0px;
      }
    </style>
  </defs>
  <g>
    <path class="cls-1" d="M97.49,78.28h0c-5.79-2.69-12.58.72-13.87,6.97l-.19.9-.77-.51c-5.32-3.53-12.54-1.19-14.76,4.8h0c-1.75,4.72.31,10.01,4.81,12.28l22.14,11.21-.02-.05.02.05,7.86-23.54c1.6-4.78-.65-9.99-5.22-12.12Z"/>
    <path class="cls-1" d="M53.85.4h0c-2.52-1.17-5.47.31-6.03,3.03l-.08.39-.33-.22c-2.31-1.54-5.45-.52-6.42,2.09h0c-.76,2.05.14,4.35,2.09,5.34l9.63,4.88v-.02s0,.02,0,.02l3.42-10.24c.69-2.08-.28-4.35-2.27-5.27Z"/>
    <path class="cls-1" d="M48.37,29.67h0c-9.27-4.31-20.13,1.15-22.21,11.16l-.3,1.44-1.23-.82c-8.51-5.66-20.08-1.9-23.64,7.68h0c-2.81,7.56.5,16.02,7.7,19.67l35.44,17.95-.03-.08.03.08,12.58-37.68c2.55-7.65-1.04-16-8.35-19.4Z"/>
    <path class="cls-1" d="M127.27,39.83h0c-1.05-9.48-10.66-15.5-19.65-12.31l-1.3.46.06-1.38c.39-9.53-8.2-16.93-17.57-15.13h0c-7.39,1.42-12.54,8.16-11.96,15.66l2.84,36.96.05-.06-.04.06,36.14-8.21c7.34-1.67,12.26-8.57,11.43-16.05Z"/>
  </g>
  <g>
    <path class="cls-1" d="M181.14,189.32c0,13.75-10.91,21.71-31.83,21.71h-41.15v-79.58h38.88c19.89,0,30.13,8.3,30.13,20.69,0,7.96-4.09,14.1-10.57,17.51,8.87,2.84,14.55,9.66,14.55,19.67ZM126.46,145.33v18.76h18.3c8.98,0,13.87-3.18,13.87-9.44s-4.89-9.32-13.87-9.32h-18.3ZM162.61,187.39c0-6.71-5.12-9.89-14.66-9.89h-21.49v19.67h21.49c9.55,0,14.66-2.96,14.66-9.78Z"/>
    <path class="cls-1" d="M255.48,149.88v61.16h-16.83v-7.28c-4.66,5.34-11.48,8.19-18.98,8.19-15.35,0-26.15-8.64-26.15-27.51v-34.56h17.73v31.94c0,10.23,4.55,14.78,12.39,14.78s14.1-5.23,14.1-16.48v-30.24h17.73Z"/>
    <path class="cls-1" d="M253.21,230.59l4.77-12.85c1.93,1.36,4.55,2.16,7.5,2.16,4.43,0,7.28-2.84,7.28-8.87v-61.16h17.73v61.05c0,14.1-8.3,23.08-23.08,23.08-5.46,0-10.8-1.02-14.21-3.41ZM270.6,131.46c0-5.57,4.43-9.89,11.03-9.89s11.03,4.09,11.03,9.55c0,5.91-4.43,10.23-11.03,10.23s-11.03-4.32-11.03-9.89Z"/>
    <path class="cls-1" d="M320.73,125.66h19.1l-20.58,16.37h-13.87l15.35-16.37ZM306.86,149.88h17.73v61.16h-17.73v-61.16Z"/>
    <path class="cls-1" d="M395.19,176.14v34.9h-16.6v-7.62c-3.3,5.57-9.66,8.53-18.64,8.53-14.32,0-22.85-7.96-22.85-18.53s7.62-18.3,26.26-18.3h14.1c0-7.62-4.55-12.05-14.1-12.05-6.48,0-13.19,2.16-17.62,5.68l-6.37-12.39c6.71-4.77,16.6-7.39,26.37-7.39,18.64,0,29.44,8.64,29.44,27.17ZM377.46,191.71v-6.25h-12.16c-8.3,0-10.91,3.07-10.91,7.16,0,4.43,3.75,7.39,10,7.39,5.91,0,11.03-2.73,13.07-8.3Z"/>
    <path class="cls-1" d="M405.31,205.35l5.91-12.73c5.46,3.52,13.76,5.91,21.26,5.91,8.19,0,11.25-2.16,11.25-5.57,0-10-36.95.23-36.95-24.21,0-11.59,10.46-19.78,28.31-19.78,8.41,0,17.73,1.93,23.53,5.34l-5.91,12.62c-6.02-3.41-12.05-4.55-17.62-4.55-7.96,0-11.37,2.5-11.37,5.68,0,10.46,36.95.34,36.95,24.44,0,11.37-10.57,19.44-28.88,19.44-10.34,0-20.8-2.84-26.49-6.59Z"/>
  </g>
  <g>
    <path class="cls-1" d="M387.63,281.92h-12.96v16.71h-17.96v-16.71h-42.86v-12.39l37.51-50.47h19.33l-34.79,47.86h21.37v-14.89h17.39v14.89h12.96v15.01Z"/>
    <path class="cls-1" d="M403.14,262.06l-6.19-9.06-6.64,9.06h-13.15l13.15-17.3-12.77-17.3h13.66l6.13,8.75,6.38-8.75h12.83l-12.77,16.85,13.21,17.74h-13.85Z"/>
    <path class="cls-1" d="M459.6,255.42c0,8.89-7.02,17.4-22.78,17.4-7.24,0-14.94-1.79-20.32-5.15l5.38-11.13c4.18,2.84,9.56,4.33,14.49,4.33s8.29-1.94,8.29-5.45c0-3.14-2.31-5.08-7.99-5.08h-6.2v-9.34l9.34-10.08h-20.62v-11.43h37.79v9.26l-10.83,11.65c8.81,1.87,13.45,7.54,13.45,15.01Z"/>
  </g>
  <g>
    <g>
      <path class="cls-1" d="M215.58,28.64c-.19,0-.39-.05-.57-.15l-7.7-4.45c-.26-.15-.45-.4-.53-.69s-.04-.6.11-.87l4.31-7.46c1.18-2.04,3.81-2.74,5.85-1.56l2.26,1.31h0c2.04,1.18,2.74,3.81,1.56,5.85l-4.31,7.46c-.21.37-.6.57-.99.57ZM209.43,22.63l5.73,3.31,3.74-6.47c.55-.95.22-2.18-.73-2.73l-2.26-1.31c-.95-.55-2.18-.22-2.73.73l-3.74,6.47Z"/>
      <path class="cls-1" d="M203.11,59.72c-.2,0-.4-.05-.57-.15l-15.96-9.23c-.55-.32-.73-1.01-.42-1.56l14.63-25.3c1.4-2.42,4.51-3.25,6.93-1.85l9.15,5.29c1.17.68,2.01,1.77,2.36,3.08.35,1.31.17,2.67-.51,3.85l-14.63,25.3c-.15.26-.4.45-.69.53-.1.03-.2.04-.29.04ZM188.71,48.94l13.98,8.08,14.06-24.31c.37-.64.47-1.4.28-2.12-.19-.72-.65-1.32-1.3-1.69l-9.15-5.29c-.64-.37-1.4-.47-2.12-.28-.72.19-1.32.65-1.69,1.3l-14.06,24.31Z"/>
      <path class="cls-1" d="M214.95,39.25c-.19,0-.39-.05-.57-.15-.55-.32-.73-1.01-.42-1.56.18-.3.22-.66.13-.99-.09-.34-.31-.62-.61-.8l-11.71-6.77c-.3-.18-.66-.22-.99-.13-.34.09-.62.31-.8.61-.32.55-1.01.73-1.56.42-.55-.32-.73-1.01-.42-1.56.48-.83,1.26-1.43,2.18-1.67.93-.25,1.9-.12,2.73.36l11.71,6.77c.83.48,1.42,1.26,1.67,2.18.25.93.12,1.89-.36,2.73-.21.37-.6.57-.99.57Z"/>
      <path class="cls-1" d="M200.09,71.93c-.19,0-.39-.05-.57-.15l-22.01-12.72c-.55-.32-.73-1.01-.42-1.56l3.42-5.92c.85-1.47,2.23-2.53,3.88-2.97,1.64-.44,3.36-.21,4.84.64l12.94,7.48h0c3.04,1.76,4.09,5.67,2.33,8.71l-3.42,5.92c-.21.37-.6.57-.99.57ZM179.64,57.64l20.03,11.58,2.85-4.93c1.13-1.95.46-4.47-1.5-5.6l-12.94-7.48c-.95-.55-2.05-.69-3.11-.41-1.06.28-1.94.96-2.49,1.91l-2.85,4.93Z"/>
      <path class="cls-1" d="M197.95,78.68c-.82,0-1.66-.21-2.42-.65l-21.46-12.41c-1.12-.65-1.92-1.69-2.26-2.95-.33-1.25-.16-2.56.49-3.68,1.34-2.31,4.31-3.11,6.62-1.77l21.46,12.41h0c2.31,1.34,3.11,4.31,1.77,6.62-.9,1.55-2.53,2.42-4.21,2.42ZM176.51,58.86c-.89,0-1.75.46-2.23,1.28-.71,1.22-.29,2.8.94,3.51l21.46,12.41c1.22.71,2.8.29,3.51-.94.71-1.22.29-2.8-.94-3.51l-21.46-12.41c-.4-.23-.84-.34-1.28-.34Z"/>
      <path class="cls-1" d="M180.4,98.52c-1.11,0-2.2-.29-3.18-.86l-11.01-6.37c-3.04-1.76-4.09-5.67-2.33-8.71l10.48-18.12c.32-.54,1.01-.73,1.56-.42l20.08,11.61c.55.32.73,1.01.42,1.56l-10.47,18.12c-.85,1.47-2.23,2.53-3.87,2.97-.55.15-1.1.22-1.66.22ZM175.75,66.6l-9.9,17.13c-1.13,1.95-.46,4.47,1.5,5.6l11.01,6.37c.95.55,2.05.69,3.11.41,1.06-.28,1.94-.96,2.49-1.91l9.9-17.13-18.11-10.47Z"/>
      <path class="cls-1" d="M171.73,104.34c-.61,0-1.23-.15-1.79-.48l-5.48-3.17c-.83-.48-1.42-1.25-1.67-2.18-.25-.93-.12-1.89.36-2.73l3.28-5.67c.32-.55,1.01-.73,1.56-.42.55.32.73,1.01.42,1.56l-3.28,5.67c-.18.3-.22.66-.13.99.09.34.31.62.61.8l5.48,3.17c.63.36,1.43.15,1.79-.48l.54-.94c.32-.55,1.01-.73,1.56-.42.55.32.73,1.01.42,1.56l-.54.94c-.66,1.15-1.87,1.79-3.12,1.79Z"/>
      <path class="cls-1" d="M170.26,98.12c-.19,0-.39-.05-.57-.15-.55-.32-.73-1.01-.42-1.56l2.01-3.48c.32-.55,1.01-.73,1.56-.42.55.32.73,1.01.42,1.56l-2.01,3.48c-.21.37-.59.57-.99.57Z"/>
      <path class="cls-1" d="M183.98,96.14c-.19,0-.39-.05-.57-.15l-15.04-8.69c-.55-.32-.73-1.01-.42-1.56.32-.54,1.01-.73,1.56-.42l15.04,8.69c.55.32.73,1.01.42,1.56-.21.37-.59.57-.99.57Z"/>
      <path class="cls-1" d="M190.95,85.58c-.16,0-.31-.03-.46-.1l-21.3-9.5c-.58-.26-.83-.93-.58-1.51.26-.58.93-.83,1.51-.58l21.3,9.5c.58.26.83.93.58,1.51-.19.42-.61.68-1.04.68Z"/>
      <path class="cls-1" d="M188.11,90.48c-.16,0-.31-.03-.46-.1l-21.3-9.5c-.58-.26-.83-.93-.58-1.51.26-.58.93-.84,1.51-.58l21.3,9.5c.58.26.83.93.58,1.51-.19.42-.61.68-1.04.68Z"/>
      <path class="cls-1" d="M188.29,79.08c-.19,0-.39-.05-.57-.15l-15.04-8.69c-.55-.32-.73-1.01-.42-1.56.32-.54,1.01-.73,1.56-.42l15.04,8.69c.55.32.73,1.01.42,1.56-.21.37-.6.57-.99.57Z"/>
    </g>
    <path class="cls-1" d="M180.95,22.24c3.1-1.85,6.78,1.66,8.33,4.12.34.54,1.18.09.98-.5-1.05-3.15-1.03-6.75,1.24-9.37.51-.59-.12-1.36-.81-1.18-3.8,1-7.31-2.75-9.37-5.49-.44-.58-1.28-.12-1.1.56.75,2.81,2.09,7.64.47,10.39-.19.08-.38.17-.56.28-.8.46.02,1.67.81,1.19ZM182.25,12.87c1.98,2.17,4.42,4.1,7.23,4.08-1.02,1.98-1.24,4.23-.93,6.44-1.69-1.85-4.03-3.25-6.38-3.01.97-2.23.68-5.01.08-7.52Z"/>
    <path class="cls-1" d="M162.76,68.11c-.7,0-1.39.03-2.08.07-.02-.63-.06-1.25-.09-1.87-.06-1.05-1.66-.84-1.61.2.03.58.02,1.16,0,1.75-.48.01-.96.01-1.44-.02-1.27-.08-1.57,1.87-.27,1.99.56.05,1.12.09,1.67.09,0,.69,0,1.37.08,2.06.06.61,1.04.8,1.23.17.23-.75.35-1.53.41-2.32.84-.11,1.66-.34,2.47-.74.76-.38.46-1.38-.35-1.38Z"/>
    <path class="cls-1" d="M229.18,80.2c1.2-2.45-.15-5.2-2.51-6.34-1.59-.76-3.3-.71-4.74-.03.23-1.26.09-2.52-.86-3.66-1.42-1.71-3.9-2.34-5.76-.97-3.94,2.87-2.82,8.94-.74,12.92-2.09-.09-4.19-.24-6.28-.35-.95-.05-1.14,1.36-.18,1.49,4.27.56,8.59.87,12.89.54,2.98-.22,6.69-.55,8.18-3.59ZM225.4,81.38c-2.54.94-5.82.84-8.48.81-.31,0-.62-.01-.93-.02-1.55-2.95-2.55-7.51-.82-10.37,1.03-1.71,2.93-2.31,4.44-.72,1.51,1.58.31,3.78-.44,5.42-.46,1.01,1.09,1.59,1.58.63,1.33-2.57,5.11-2.89,6.74-.41,1.26,1.92-.19,3.97-2.09,4.67Z"/>
    <path class="cls-1" d="M160.24,36.68c-1.6-1.19-3.77-1.1-5.07.49-1.02,1.24-1.12,2.73-.87,4.2-1.6-.73-3.36-1.03-4.93.06-1.74,1.2-1.79,3.5-1,5.28,2.26,5.12,8.81,5.96,13.68,6.41.01,0,.02,0,.03,0,.01.08.02.16.04.24.16.99,1.69,1,1.61-.06-.26-3.39-.58-6.78-.94-10.16-.24-2.32-.51-4.96-2.53-6.46ZM160.57,42.48c.42,3.1.83,6.21,1.3,9.31-3.28-.48-6.91-1.06-9.6-3.12-1.26-.97-2.9-2.8-2.51-4.56.66-2.97,4.26-.75,5.64.19.75.51,1.69-.41,1.43-1.19-.44-1.36-1.43-6.4,1.76-5.02,1.62.7,1.77,2.91,1.97,4.39Z"/>
  </g>
  <g>
    <path class="cls-1" d="M256.48,55.08l5.05,8.93h-7.07l-4.55-8.11h-5.71l-1.61,8.11h-6.74l5.79-28.95h11.79c7.2,0,11.33,3.31,11.33,8.98s-3.1,9.43-8.27,11.04ZM257.97,44.66c0-2.81-1.99-4.14-5.42-4.14h-5.29l-2.03,10.05h5.71c4.43,0,7.03-2.07,7.03-5.91Z"/>
    <path class="cls-1" d="M289.61,54.62h-17.04c.21,3.02,2.07,4.55,5.75,4.55,2.27,0,4.43-.74,5.96-2.07l2.69,4.26c-2.56,2.07-5.91,2.98-9.31,2.98-6.95,0-11.37-3.93-11.37-9.97,0-7.45,5.38-12.95,13.11-12.95,6.49,0,10.59,3.85,10.59,9.8,0,1.2-.16,2.36-.37,3.39ZM273.03,50.86h11.04c0-2.94-1.98-4.59-4.96-4.59s-5.21,1.82-6.08,4.59Z"/>
    <path class="cls-1" d="M318.36,51.4c0,7.49-5.42,12.95-12.33,12.95-3.23,0-5.75-1.03-7.2-3.31l-2.19,11h-6.45l6.04-30.28h6.12l-.45,2.19c1.78-1.61,4.1-2.52,6.82-2.52,5.17,0,9.64,3.64,9.64,9.97ZM311.83,51.69c0-3.02-1.86-4.92-5.09-4.92-3.76,0-6.49,2.98-6.49,7.32,0,3.02,1.82,4.92,5.05,4.92,3.8,0,6.53-2.98,6.53-7.32Z"/>
    <path class="cls-1" d="M347.19,41.76l-4.43,22.25h-6.12l.46-2.4c-1.98,1.86-4.55,2.73-7.24,2.73-4.76,0-7.98-2.65-7.98-7.57,0-.83.08-1.74.29-2.69l2.44-12.33h6.45l-2.36,11.91c-.13.58-.17,1.12-.17,1.61,0,2.23,1.2,3.47,3.72,3.47,3.18,0,5.42-1.82,6.2-5.71l2.28-11.29h6.45Z"/>
    <path class="cls-1" d="M372.55,54.62h-17.04c.21,3.02,2.07,4.55,5.75,4.55,2.27,0,4.43-.74,5.96-2.07l2.69,4.26c-2.56,2.07-5.91,2.98-9.31,2.98-6.95,0-11.37-3.93-11.37-9.97,0-7.45,5.38-12.95,13.11-12.95,6.49,0,10.59,3.85,10.59,9.8,0,1.2-.16,2.36-.37,3.39ZM355.96,50.86h11.04c0-2.94-1.98-4.59-4.96-4.59s-5.21,1.82-6.08,4.59Z"/>
    <path class="cls-1" d="M373.34,62.03l2.48-4.67c1.9,1.28,4.92,2.11,7.73,2.11,3.02,0,4.34-.83,4.34-2.15,0-3.14-11.79-.54-11.79-8.06,0-5,4.67-7.82,11.17-7.82,3.1,0,6.2.7,8.23,1.86l-2.32,4.72c-2.07-1.28-4.51-1.7-6.58-1.7-2.98,0-4.3.99-4.3,2.19,0,3.27,11.75.66,11.75,8.07,0,5.09-4.8,7.78-11.21,7.78-3.93,0-7.65-.99-9.51-2.32Z"/>
    <path class="cls-1" d="M405.48,56.15c-.08.33-.08.62-.08.91,0,1.37.75,2.15,2.36,2.15.87,0,1.78-.29,2.61-.79l.95,4.59c-1.61.99-3.6,1.32-5.54,1.32-4.14,0-6.95-2.32-6.95-6.2,0-.62.08-1.28.21-1.94l1.78-8.97h-3.43l.99-4.96h3.43l1.08-5.42h6.45l-1.08,5.42h5.54l-.99,4.96h-5.54l-1.78,8.93Z"/>
    <path class="cls-1" d="M414.41,54.38c0-7.4,5.63-12.95,13.44-12.95,6.82,0,11.21,3.93,11.21,9.97,0,7.4-5.58,12.95-13.44,12.95-6.78,0-11.21-3.97-11.21-9.97ZM432.53,51.69c0-3.02-1.82-4.92-5.05-4.92-3.8,0-6.53,2.98-6.53,7.32,0,3.02,1.86,4.92,5.09,4.92,3.76,0,6.49-2.98,6.49-7.32Z"/>
    <path class="cls-1" d="M439.65,62.03l2.48-4.67c1.9,1.28,4.92,2.11,7.73,2.11,3.02,0,4.34-.83,4.34-2.15,0-3.14-11.79-.54-11.79-8.06,0-5,4.67-7.82,11.17-7.82,3.1,0,6.2.7,8.23,1.86l-2.32,4.72c-2.07-1.28-4.51-1.7-6.58-1.7-2.98,0-4.3.99-4.3,2.19,0,3.27,11.75.66,11.75,8.07,0,5.09-4.8,7.78-11.21,7.78-3.93,0-7.65-.99-9.51-2.32Z"/>
  </g>
  <g>
    <path class="cls-1" d="M263.3,79l-4.07,20.49h-2.72l1.42-7.16c-1.3,1.16-3.06,1.84-5.12,1.84-3.82,0-6.62-2.43-6.62-6.48,0-5.15,3.62-8.83,8.49-8.83,2.66,0,4.56.99,5.49,2.86l.57-2.72h2.58ZM259.25,85.45c0-2.66-1.61-4.22-4.47-4.22-3.37,0-5.86,2.63-5.86,6.34,0,2.63,1.61,4.22,4.47,4.22,3.4,0,5.86-2.63,5.86-6.34Z"/>
    <path class="cls-1" d="M282.46,79l-2.97,15h-2.6l.37-1.92c-1.39,1.41-3.28,2.09-5.38,2.09-3.28,0-5.38-1.84-5.38-5.04,0-.54.06-1.1.17-1.73l1.67-8.41h2.72l-1.67,8.43c-.08.45-.14.88-.14,1.27,0,1.92,1.13,3.03,3.42,3.03,2.83,0,4.84-1.58,5.49-4.78l1.58-7.95h2.72Z"/>
    <path class="cls-1" d="M287.29,87.35v.17c0,2.75,1.53,4.27,4.76,4.27,1.87,0,3.57-.68,4.64-1.73l1.16,1.95c-1.47,1.39-3.74,2.15-6.03,2.15-4.44,0-7.19-2.55-7.19-6.51,0-5.09,3.57-8.8,8.46-8.8,4.05,0,6.71,2.43,6.71,6.48,0,.71-.09,1.39-.2,2.01h-12.31ZM287.58,85.37h9.68c.14-2.75-1.61-4.25-4.27-4.25s-4.73,1.64-5.41,4.25Z"/>
    <path class="cls-1" d="M312.2,87.35v.17c0,2.75,1.53,4.27,4.76,4.27,1.87,0,3.57-.68,4.64-1.73l1.16,1.95c-1.47,1.39-3.74,2.15-6.03,2.15-4.44,0-7.19-2.55-7.19-6.51,0-5.09,3.57-8.8,8.46-8.8,4.05,0,6.71,2.43,6.71,6.48,0,.71-.09,1.39-.2,2.01h-12.31ZM312.48,85.37h9.68c.14-2.75-1.61-4.25-4.27-4.25s-4.73,1.64-5.41,4.25Z"/>
    <path class="cls-1" d="M342.94,83.84c0,.54-.06,1.13-.17,1.75l-1.67,8.41h-2.72l1.67-8.41c.08-.45.14-.88.14-1.25,0-1.95-1.13-3.06-3.48-3.06-2.92,0-4.9,1.56-5.55,4.78l-1.59,7.93h-2.72l2.97-15h2.6l-.37,1.93c1.39-1.42,3.28-2.07,5.44-2.07,3.4,0,5.43,1.78,5.43,4.98Z"/>
    <path class="cls-1" d="M363.32,79l-2.97,15h-2.6l.37-1.84c-1.33,1.27-3.14,2.01-5.29,2.01-3.82,0-6.62-2.43-6.62-6.48,0-5.15,3.62-8.83,8.49-8.83,2.58,0,4.44.93,5.41,2.69l.51-2.55h2.72ZM359.27,85.45c0-2.66-1.61-4.22-4.47-4.22-3.37,0-5.86,2.63-5.86,6.34,0,2.63,1.61,4.22,4.47,4.22,3.4,0,5.86-2.63,5.86-6.34Z"/>
    <path class="cls-1" d="M392.27,83.81c0,.54-.09,1.13-.2,1.78l-1.67,8.41h-2.72l1.67-8.41c.09-.48.14-.91.14-1.3,0-1.92-1.08-3-3.31-3-2.75,0-4.61,1.53-5.26,4.7l-1.61,8.01h-2.72l1.7-8.41c.08-.45.14-.88.14-1.27,0-1.92-1.08-3.03-3.34-3.03-2.77,0-4.61,1.56-5.27,4.78l-1.59,7.93h-2.72l2.97-15h2.6l-.37,1.87c1.36-1.39,3.17-2.01,5.21-2.01,2.35,0,4.05.93,4.81,2.66,1.53-1.78,3.62-2.66,6.11-2.66,3.4,0,5.41,1.78,5.41,4.95Z"/>
    <path class="cls-1" d="M395.49,87.69c0-5.07,3.68-8.83,8.8-8.83,4.27,0,7.02,2.52,7.02,6.45,0,5.09-3.65,8.86-8.77,8.86-4.27,0-7.05-2.58-7.05-6.48ZM408.57,85.45c0-2.66-1.61-4.22-4.47-4.22-3.37,0-5.86,2.63-5.86,6.34,0,2.63,1.61,4.22,4.47,4.22,3.4,0,5.86-2.63,5.86-6.34Z"/>
    <path class="cls-1" d="M424.59,78.86l-.51,2.63c-.25-.03-.42-.03-.71-.03-3,0-4.98,1.58-5.66,5.04l-1.5,7.5h-2.72l2.97-15h2.6l-.42,2.24c1.36-1.7,3.26-2.38,5.94-2.38Z"/>
    <path class="cls-1" d="M441.85,79l-2.97,15h-2.6l.37-1.84c-1.33,1.27-3.14,2.01-5.29,2.01-3.82,0-6.62-2.43-6.62-6.48,0-5.15,3.62-8.83,8.49-8.83,2.58,0,4.44.93,5.41,2.69l.51-2.55h2.72ZM437.81,85.45c0-2.66-1.61-4.22-4.47-4.22-3.37,0-5.86,2.63-5.86,6.34,0,2.63,1.61,4.22,4.47,4.22,3.4,0,5.86-2.63,5.86-6.34Z"/>
    <path class="cls-1" d="M460.14,83.84c0,.54-.06,1.13-.17,1.75l-1.67,8.41h-2.72l1.67-8.41c.09-.45.14-.88.14-1.25,0-1.95-1.13-3.06-3.48-3.06-2.92,0-4.9,1.56-5.55,4.78l-1.58,7.93h-2.72l2.97-15h2.6l-.37,1.93c1.39-1.42,3.28-2.07,5.43-2.07,3.4,0,5.43,1.78,5.43,4.98Z"/>
  </g>
</svg>